HIERARCHY
ROOT Hips
{
	OFFSET 0.000000 0.000000 0.000000
	CHANNELS 6 Xposition Yposition Zposition Zrotation Yrotation Xrotation 
	JOINT LHipJoint
	{
		OFFSET 0.000000 0.000000 0.000000
		CHANNELS 3 Zrotation Yrotation Xrotation
		JOINT LeftUpLeg
		{
			OFFSET 1.363060 -1.794630 0.839290
			CHANNELS 3 Zrotation Yrotation Xrotation
			JOINT LeftLeg
			{
				OFFSET 2.448110 -6.726130 0.000000
				CHANNELS 3 Zrotation Yrotation Xrotation
				JOINT LeftFoot
				{
					OFFSET 2.562200 -7.039590 0.000000
					CHANNELS 3 Zrotation Yrotation Xrotation
					JOINT LeftToeBase
					{
						OFFSET 0.157640 -0.433110 2.322550
						CHANNELS 3 Zrotation Yrotation Xrotation
						End Site
						{
							OFFSET 0.000000 0.000000 0.000000
						}
					}
				}
			}
		}
	}
	JOINT RHipJoint
	{
		OFFSET 0.000000 0.000000 0.000000
		CHANNELS 3 Zrotation Yrotation Xrotation
		JOINT RightUpLeg
		{
			OFFSET -1.305520 -1.794630 0.839290
			CHANNELS 3 Zrotation Yrotation Xrotation
			JOINT RightLeg
			{
				OFFSET -2.542530 -6.985550 0.000000
				CHANNELS 3 Zrotation Yrotation Xrotation
				JOINT RightFoot
				{
					OFFSET -2.568260 -7.056230 0.000000
					CHANNELS 3 Zrotation Yrotation Xrotation
					JOINT RightToeBase
					{
						OFFSET -0.164730 -0.452590 2.363150
						CHANNELS 3 Zrotation Yrotation Xrotation
						End Site
						{
							OFFSET 0.000000 0.000000 0.000000
						}
					}
				}
			}
		}
	}
	JOINT LowerBack
	{
		OFFSET 0.000000 0.000000 0.000000
		CHANNELS 3 Zrotation Yrotation Xrotation
		JOINT Spine
		{
			OFFSET 0.028270 2.035590 -0.193380
			CHANNELS 3 Zrotation Yrotation Xrotation
			JOINT Spine1
			{
				OFFSET 0.056720 2.048850 -0.042750
				CHANNELS 3 Zrotation Yrotation Xrotation
				JOINT Neck
				{
					OFFSET 0.000000 0.000000 0.000000
					CHANNELS 3 Zrotation Yrotation Xrotation
					JOINT Neck1
					{
						OFFSET -0.054170 1.746240 0.172020
						CHANNELS 3 Zrotation Yrotation Xrotation
						JOINT Head
						{
							OFFSET 0.104070 1.761360 -0.123970
							CHANNELS 3 Zrotation Yrotation Xrotation
							End Site
							{
								OFFSET 0.000000 0.000000 0.000000
							}
						}
					}
				}
				JOINT LeftShoulder
				{
					OFFSET 0.000000 0.000000 0.000000
					CHANNELS 3 Zrotation Yrotation Xrotation
					JOINT LeftArm
					{
						OFFSET 3.362410 1.200890 -0.311210
						CHANNELS 3 Zrotation Yrotation Xrotation
						JOINT LeftForeArm
						{
							OFFSET 4.983000 -0.000000 -0.000000
							CHANNELS 3 Zrotation Yrotation Xrotation
							JOINT LeftHand
							{
								OFFSET 3.483560 -0.000000 -0.000000
								CHANNELS 3 Zrotation Yrotation Xrotation
								JOINT LeftFingerBase
								{
									OFFSET 0.000000 0.000000 0.000000
									CHANNELS 3 Zrotation Yrotation Xrotation
									JOINT LeftHandIndex1
									{
										OFFSET 0.715260 -0.000000 -0.000000
										CHANNELS 3 Zrotation Yrotation Xrotation
										End Site
										{
											OFFSET 0.000000 0.000000 0.000000
										}
									}
								}
								JOINT LThumb
								{
									OFFSET 0.000000 0.000000 0.000000
									CHANNELS 3 Zrotation Yrotation Xrotation
									End Site
									{
										OFFSET 0.000000 0.000000 0.000000
									}
								}
							}
						}
					}
				}
				JOINT RightShoulder
				{
					OFFSET 0.000000 0.000000 0.000000
					CHANNELS 3 Zrotation Yrotation Xrotation
					JOINT RightArm
					{
						OFFSET -3.136600 1.374050 -0.404650
						CHANNELS 3 Zrotation Yrotation Xrotation
						JOINT RightForeArm
						{
							OFFSET -5.241900 -0.000000 -0.000000
							CHANNELS 3 Zrotation Yrotation Xrotation
							JOINT RightHand
							{
								OFFSET -3.444170 -0.000000 -0.000000
								CHANNELS 3 Zrotation Yrotation Xrotation
								JOINT RightFingerBase
								{
									OFFSET 0.000000 0.000000 0.000000
									CHANNELS 3 Zrotation Yrotation Xrotation
									JOINT RightHandIndex1
									{
										OFFSET -0.622530 -0.000000 -0.000000
										CHANNELS 3 Zrotation Yrotation Xrotation
										End Site
										{
											OFFSET 0.000000 0.000000 0.000000
										}
									}
								}
								JOINT RThumb
								{
									OFFSET 0.000000 0.000000 0.000000
									CHANNELS 3 Zrotation Yrotation Xrotation
									End Site
									{
										OFFSET 0.000000 0.000000 0.000000
									}
								}
							}
						}
					}
				}
			}
		}
	}
}
MOTION
Frames: 11
Frame Time: 0.008333
-0.458411 17.020026 -0.534429 15.232194 76.822773 20.083081 -10.065939 1.098345 2.781963 -9.674939 0.998328 -27.577984 -2.328135 0.432830 23.440240 0.829478 3.343018 -8.792606 -0.132700 0.000000 -31.620901 10.371115 -3.819292 -2.332764 3.675782 -17.877648 -0.591071 0.562157 -2.822371 36.164749 -0.094957 2.563513 7.073136 0.570600 0.000000 -71.513199 -5.929740 -0.531215 -2.573358 -1.605792 -0.220481 -2.751522 -5.068519 -0.302011 2.873481 11.130036 -14.348082 -9.737242 -1.607994 -0.099892 -0.527427 0.000000 0.000000 0.000000 -4.977049 23.299917 1.482104 -86.090810 30.661098 8.764262 -3.560844 -24.588222 -0.028360 -11.773619 7.991984 -0.843455 0.024277 -0.150791 -0.000000 0.000000 0.000000 0.000000 0.000000 0.000000 0.000000 12.358050 -9.846507 -0.268402 47.769345 10.016980 3.224170 1.862318 50.710702 0.009089 1.411333 3.645890 0.045174 0.066946 -0.141859 -0.000000 0.000000 0.000000 0.000000 0.000000 0.000000 0.000000 
-0.258119 17.006716 -0.501585 15.304491 75.930824 19.772768 -10.113794 1.245884 2.548186 -10.014164 2.191856 -26.935795 -2.305572 0.517137 24.215677 0.797254 3.362125 -8.193639 -0.088700 0.000000 -31.374500 10.626599 -3.761168 -2.445504 2.470015 -18.810457 -1.884428 0.254567 -3.011555 39.449109 -0.296380 1.607723 8.572342 0.454100 -0.000000 -71.837499 -6.102117 -0.581486 -2.351602 -1.646019 -0.253206 -2.726169 -5.114219 -0.331464 2.818959 11.146266 -14.252542 -9.712044 -1.649590 -0.103453 -0.522284 0.000000 0.000000 0.000000 -4.963619 23.128656 1.470875 -86.091877 30.291111 9.176037 -3.510778 -24.693654 -0.027159 -11.462781 7.948403 -0.816545 0.024815 -0.149068 -0.000000 0.000000 0.000000 0.000000 0.000000 0.000000 0.000000 12.500704 -9.740265 -0.286281 48.557207 9.798273 3.232547 1.898328 50.289370 0.008924 1.345397 3.568816 0.041984 0.068798 -0.139835 -0.000000 0.000000 0.000000 0.000000 0.000000 0.000000 0.000000 
-0.060300 16.991936 -0.466797 15.381464 75.035400 19.503054 -10.151975 1.391171 2.301561 -10.373515 3.528818 -26.341376 -2.297533 0.585730 24.918237 0.770981 3.366890 -7.759215 -0.059900 0.000000 -31.072500 10.857971 -3.669429 -2.534800 1.391916 -19.613559 -3.277380 -0.024527 -3.175509 42.678067 -0.550886 0.100649 9.600068 0.132300 0.000001 -70.535200 -6.267613 -0.650859 -2.142837 -1.683340 -0.305999 -2.704503 -5.160063 -0.381598 2.758564 11.159078 -14.160619 -9.698838 -1.694593 -0.107151 -0.519985 0.000000 0.000000 0.000000 -4.941297 22.921990 1.459968 -86.008394 29.857761 9.606823 -3.460429 -24.815768 -0.025811 -11.080349 7.849147 -0.779231 0.024470 -0.146701 -0.000000 0.000000 0.000000 0.000000 0.000000 0.000000 0.000000 12.647778 -9.637973 -0.300464 49.422846 9.552489 3.241513 1.936612 49.866052 0.008783 1.276298 3.503129 0.038997 0.070788 -0.138025 -0.000000 0.000000 0.000000 0.000000 0.000000 0.000000 0.000000 
0.135016 16.975865 -0.430380 15.428547 74.139249 19.245879 -10.180051 1.531740 2.055308 -10.723648 4.921637 -25.782288 -2.302564 0.639529 25.551582 0.752331 3.365283 -7.529453 -0.049001 -0.000000 -30.725600 11.060991 -3.548786 -2.604706 0.464608 -20.285321 -4.759535 -0.265456 -3.322743 45.806739 -0.836780 -1.827428 10.041864 -0.362100 -0.000000 -67.640700 -6.414860 -0.736546 -1.951231 -1.715742 -0.376941 -2.686977 -5.206076 -0.450466 2.693348 11.169767 -14.079745 -9.697819 -1.742744 -0.110972 -0.520547 0.000000 0.000000 0.000000 -4.914481 22.677643 1.448405 -85.835337 29.366283 10.064631 -3.411767 -24.958146 -0.024408 -10.661328 7.697850 -0.735112 0.023427 -0.143764 -0.000000 0.000000 0.000000 0.000000 0.000000 0.000000 0.000000 12.801571 -9.547755 -0.309875 50.351416 9.282652 3.247928 1.977874 49.437586 0.008690 1.210672 3.459095 0.036410 0.072857 -0.136460 -0.000000 0.000000 0.000000 0.000000 0.000000 0.000000 0.000000 
0.327958 16.958833 -0.392599 15.426619 73.244183 18.985512 -10.198260 1.665744 1.820875 -11.044227 6.286890 -25.239290 -2.318482 0.679693 26.117792 0.743486 3.373061 -7.524989 -0.057000 0.000000 -30.369500 11.234040 -3.405887 -2.659340 -0.299922 -20.831818 -6.321865 -0.463956 -3.461234 48.789372 -1.131486 -3.988074 9.823724 -0.938800 0.000000 -63.369300 -6.535771 -0.835819 -1.779586 -1.741956 -0.463909 -2.673541 -5.252447 -0.535864 2.625697 11.180438 -14.013537 -9.708458 -1.793980 -0.114920 -0.523860 0.000000 0.000000 0.000000 -4.882488 22.400725 1.435641 -85.568477 28.815627 10.557017 -3.366894 -25.112947 -0.023032 -10.236975 7.501209 -0.687590 0.021820 -0.140363 -0.000000 0.000000 0.000000 0.000000 0.000000 0.000000 0.000000 12.965823 -9.473890 -0.314438 51.328800 8.989832 3.246472 2.022781 48.995824 0.008668 1.154160 3.445823 0.034424 0.074943 -0.135136 -0.000000 0.000000 0.000000 0.000000 0.000000 0.000000 0.000000 
0.518695 16.941308 -0.353740 15.359665 72.349923 18.708398 -10.207782 1.791865 1.607558 -11.321340 7.553450 -24.693143 -2.342268 0.707467 26.616352 0.747185 3.412847 -7.745746 -0.084001 0.000000 -30.057300 11.376705 -3.247904 -2.700621 -0.892312 -21.256204 -7.957202 -0.620428 -3.596017 51.577940 -1.414049 -6.170004 8.940856 -1.476600 -0.000000 -58.158900 -6.622141 -0.945375 -1.631317 -1.760741 -0.564241 -2.664505 -5.299479 -0.635078 2.557011 11.191921 -13.965107 -9.728303 -1.848228 -0.119026 -0.529271 0.000000 0.000000 0.000000 -4.850503 22.090516 1.420427 -85.204460 28.212689 11.072658 -3.327725 -25.277955 -0.021750 -9.831779 7.271491 -0.639967 0.019751 -0.136638 -0.000000 0.000000 0.000000 0.000000 0.000000 0.000000 0.000000 13.142243 -9.421021 -0.313876 52.343093 8.677330 3.230889 2.072489 48.523701 0.008732 1.109656 3.469255 0.033241 0.077043 -0.134002 -0.000000 0.000000 0.000000 0.000000 0.000000 0.000000 0.000000 
0.707465 16.923876 -0.313936 15.224054 71.456162 18.410425 -10.209967 1.909405 1.421771 -11.548619 8.666542 -24.123915 -2.370262 0.724020 27.044293 0.766430 3.511607 -8.171722 -0.129500 0.000000 -29.848500 11.490104 -3.081289 -2.729320 -1.309691 -21.562329 -9.658325 -0.736972 -3.728925 54.130933 -1.665753 -8.169305 7.445552 -1.859100 -0.000000 -52.424200 -6.669616 -1.062577 -1.509129 -1.771598 -0.675669 -2.659879 -5.347493 -0.745772 2.489439 11.205422 -13.933581 -9.754280 -1.905584 -0.123342 -0.535996 0.000000 0.000000 0.000000 -4.818384 21.750883 1.402185 -84.743241 27.559452 11.593121 -3.296219 -25.442790 -0.020611 -9.462117 7.023844 -0.594742 0.017237 -0.132743 -0.000000 0.000000 0.000000 0.000000 0.000000 0.000000 0.000000 13.333084 -9.389817 -0.308846 53.384780 8.345585 3.190912 2.127837 48.000874 0.008885 1.075780 3.532371 0.032659 0.079178 -0.132986 -0.000000 0.000000 0.000000 0.000000 0.000000 0.000000 0.000000 
0.894568 16.907124 -0.273228 15.018492 70.562375 18.088998 -10.206463 2.018128 1.266816 -11.724790 9.592130 -23.516321 -2.398543 0.730566 27.397560 0.804030 3.695946 -8.767698 -0.193800 -0.000000 -29.795300 11.575771 -2.911106 -2.744517 -1.551263 -21.751067 -11.417292 -0.815652 -3.858406 56.413026 -1.871721 -9.821540 5.445896 -2.010600 0.000001 -46.567800 -6.675281 -1.185095 -1.415136 -1.774209 -0.796115 -2.659433 -5.396521 -0.865787 2.425647 11.221204 -13.917703 -9.783317 -1.965836 -0.127892 -0.543255 0.000000 0.000000 0.000000 -4.784609 21.388470 1.380546 -84.185763 26.857140 12.097788 -3.273903 -25.594165 -0.019641 -9.134230 6.774314 -0.553516 0.014233 -0.128831 -0.000000 0.000000 0.000000 0.000000 0.000000 0.000000 0.000000 13.538429 -9.380926 -0.300529 54.447858 7.997016 3.114087 2.189474 47.403075 0.009114 1.045997 3.633765 0.032477 0.081411 -0.131991 -0.000000 0.000000 0.000000 0.000000 0.000000 0.000000 0.000000 
1.080206 16.891640 -0.231545 14.748995 69.668869 17.745249 -10.198823 2.118303 1.142560 -11.853014 10.318750 -22.858529 -2.423385 0.728383 27.671586 0.861997 3.987657 -9.487475 -0.277900 0.000000 -29.931500 11.635660 -2.740937 -2.745034 -1.621137 -21.825409 -13.223481 -0.857024 -3.981077 58.398132 -2.020788 -11.013520 3.075533 -1.911100 0.000000 -40.851000 -6.639399 -1.311239 -1.349430 -1.768785 -0.923863 -2.662262 -5.446240 -0.993274 2.369543 11.239978 -13.915399 -9.813616 -2.028565 -0.132659 -0.550646 0.000000 0.000000 0.000000 -4.741848 21.018066 1.355855 -83.535573 26.098271 12.568951 -3.262074 -25.709874 -0.018853 -8.845735 6.539168 -0.517189 0.010619 -0.125034 -0.000000 0.000000 0.000000 0.000000 0.000000 0.000000 0.000000 13.758653 -9.393710 -0.290991 55.527218 7.633803 2.986410 2.257333 46.707055 0.009393 1.007202 3.769230 0.032195 0.083836 -0.130927 -0.000000 0.000000 0.000000 0.000000 0.000000 0.000000 0.000000 
1.264624 16.877943 -0.188802 14.420696 68.776425 17.377906 -10.189010 2.210678 1.045967 -11.936992 10.856802 -22.143911 -2.441663 0.718946 27.862417 0.940896 4.398653 -10.279424 -0.382900 -0.000001 -30.266700 11.671307 -2.573246 -2.729426 -1.525746 -21.789184 -15.062618 -0.860739 -4.092508 60.067043 -2.106350 -11.688375 0.484839 -1.596300 0.000000 -35.470600 -6.562062 -1.439482 -1.310276 -1.755427 -1.057314 -2.667731 -5.496281 -1.126513 2.322441 11.260141 -13.923398 -9.841972 -2.093292 -0.137642 -0.557345 0.000000 0.000000 0.000000 -4.688319 20.642953 1.328397 -82.798428 25.287993 12.967700 -3.261889 -25.778905 -0.018240 -8.587564 6.334798 -0.486161 0.006263 -0.121461 -0.000000 0.000000 0.000000 0.000000 0.000000 0.000000 0.000000 13.989914 -9.426815 -0.281620 56.622317 7.255631 2.788976 2.331137 45.891092 0.009685 0.942816 3.930350 0.031213 0.086575 -0.129704 -0.000000 0.000000 0.000000 0.000000 0.000000 0.000000 0.000000 
1.447943 16.866413 -0.144807 14.042669 67.887548 16.987527 -10.178911 2.296441 0.971429 -11.981058 11.234609 -21.368797 -2.451241 0.703841 27.966997 1.039497 4.928931 -11.091452 -0.509000 -0.000001 -30.786200 11.684256 -2.409662 -2.696953 -1.275260 -21.650060 -16.916319 -0.826424 -4.188495 61.406497 -2.126504 -11.839529 -2.174254 -1.142200 0.000000 -30.573500 -6.445584 -1.568973 -1.293495 -1.734564 -1.195313 -2.674337 -5.545832 -1.264154 2.287447 11.280853 -13.939986 -9.867969 -2.159206 -0.142768 -0.563329 0.000000 0.000000 0.000000 -4.616370 20.277759 1.299129 -81.981156 24.419162 13.270765 -3.273937 -25.781026 -0.017783 -8.343877 6.173557 -0.459929 0.001005 -0.118156 -0.000000 0.000000 0.000000 0.000000 0.000000 0.000000 0.000000 14.229451 -9.479677 -0.274532 57.731120 6.863466 2.503480 2.409634 44.940288 0.009940 0.831854 4.107695 0.028330 0.089739 -0.128264 -0.000000 0.000000 0.000000 0.000000 0.000000 0.000000 0.000000 
